<?xml version="1.0" encoding="utf-8"?>
<!-- Generator: Adobe Illustrator 25.2.0, SVG Export Plug-In . SVG Version: 6.00 Build 0)  -->
<svg version="1.1" id="Layer_1" xmlns="http://www.w3.org/2000/svg" xmlns:xlink="http://www.w3.org/1999/xlink" x="0px" y="0px"
	 viewBox="0 0 100 100" style="enable-background:new 0 0 100 100;" xml:space="preserve">
<style type="text/css">
	.st0{fill:url(#SVGID_1_);}
	.st1{fill:#FFFFFF;}
</style>
<g>
	
		<linearGradient id="SVGID_1_" gradientUnits="userSpaceOnUse" x1="24.7056" y1="-299.7315" x2="109.3374" y2="-215.0997" gradientTransform="matrix(0 1 -1 0 -207.4157 -17.0216)">
		<stop  offset="0" style="stop-color:#1677F1"/>
		<stop  offset="0.1756" style="stop-color:#186EE9"/>
		<stop  offset="0.4613" style="stop-color:#1E56D3"/>
		<stop  offset="0.8194" style="stop-color:#262EB0"/>
		<stop  offset="1" style="stop-color:#2B189C"/>
	</linearGradient>
	<path class="st0" d="M0,73.8V26.2C0,11.8,11.8,0,26.2,0h47.7C88.2,0,100,11.8,100,26.2l0,47.7c0,14.4-11.8,26.2-26.2,26.2h-16
		l-8.4-2l-7.2,2l-16,0C11.8,100,0,88.2,0,73.8z"/>
	<g>
		<path class="st1" d="M69.5,66.1l2.2-14.5H57.8v-9.4c0-4,1.9-7.8,8.1-7.8h6.3V22.2c0,0-5.7-1-11.2-1c-11.4,0-18.9,6.9-18.9,19.5v11
			H29.5v14.5h12.7V100h15.6V66.1H69.5z"/>
	</g>
</g>
<g>
</g>
<g>
</g>
<g>
</g>
<g>
</g>
<g>
</g>
<g>
</g>
<g>
</g>
<g>
</g>
<g>
</g>
<g>
</g>
<g>
</g>
<g>
</g>
<g>
</g>
<g>
</g>
<g>
</g>
</svg>
