<?xml version="1.0" encoding="utf-8"?>
<!-- Generator: Adobe Illustrator 25.2.0, SVG Export Plug-In . SVG Version: 6.00 Build 0)  -->
<svg version="1.1" id="Layer_1" xmlns="http://www.w3.org/2000/svg" xmlns:xlink="http://www.w3.org/1999/xlink" x="0px" y="0px"
	 viewBox="0 0 320 192" style="enable-background:new 0 0 320 192;" xml:space="preserve">
<style type="text/css">
	.st0{clip-path:url(#SVGID_2_);}
	.st1{fill:#FF0310;}
	.st2{fill:#FFFFFF;}
</style>
<g>
	<defs>
		<rect id="SVGID_1_" width="320" height="192"/>
	</defs>
	<clipPath id="SVGID_2_">
		<use xlink:href="#SVGID_1_"  style="overflow:visible;"/>
	</clipPath>
	<g class="st0">
		<rect x="-25" y="-1.6" class="st1" width="370" height="195.2"/>
		<g>
			<g>
				<path class="st2" d="M169.7,40.7l0.2-0.1c-29.2-1.6-30.4,29.1-30.4,29.1c-0.2,19.4,15.6,26.9,15.6,26.9c-7.2-8.3-6.7-11-7.3-17
					c-0.6-5.9,3-12.6,3-12.6c0.6-0.7,0.7,0.4,0.7,0.4c-1.4,2-4.4,9.4-2.3,17.7c2.1,8.3,6.8,11,6.8,11c-2.5-2.5-2.9-6.1-3-8.1
					c-0.1-2,1-8.4,7.2-11.7c6.2-3.3,6.3-6.7,7.5-11.6c1.2-4.9-1.5-8.8-2.4-10.5c-0.8-1.7-1.4-4.2-0.8-7.2
					C165,43.9,169.7,40.7,169.7,40.7z M155.6,65.2l-1.8,3.7l-0.5-4.2l-3.8-0.7l3.4-1.8l-0.5-4.2l2.6,3l3.4-1.8l-1.8,3.7l2.6,3
					L155.6,65.2z"/>
			</g>
			<g>
				<path class="st2" d="M210.3,92.2l0.2,0.1c-8.2-30.9-35-22-35-22c-16.8,6.2-18,25-18,25c4.8-10.2,7.3-10.6,12.2-13.2
					c4.9-2.6,11.8-1,11.8-1c0.8,0.4-0.1,0.9-0.1,0.9c-2.2-0.7-9.5-1.5-16,3.4c-6.5,4.9-7.2,10.7-7.2,10.7c1.3-3.4,4.3-5,6-5.7
					c1.7-0.7,7.5-1.7,12.4,3.6c4.9,5.3,7.8,4.3,12.4,4c4.6-0.3,7.1-4.5,8.3-5.9c1.2-1.4,3.1-2.8,6-3.3
					C206,88.4,210.3,92.2,210.3,92.2z M184.6,85.6l-3.8-0.7l3.4-1.9l-0.6-4.1l2.7,3l3.4-1.9l-1.7,3.7l2.7,3l-3.8-0.7l-1.7,3.7
					L184.6,85.6z"/>
			</g>
			<g>
				<path class="st2" d="M177.9,151.2l-0.1,0.2c24.4-17.7,8.8-43.2,8.8-43.2c-10.3-15.7-27.1-11.5-27.1-11.5
					c10.3,2,11.4,4.5,15.1,8.9c3.7,4.4,4.3,12.1,4.3,12.1c-0.1,0.9-0.8,0.1-0.8,0.1c0-2.5-1.5-10.4-7.7-15.7
					c-6.2-5.3-11.4-4.4-11.4-4.4c3.4,0.3,5.6,3,6.8,4.5c1.1,1.6,3.7,7.4,0.5,14.1c-3.2,6.7-1.4,9.5,0.2,14.2c1.6,4.8,6,6.1,7.6,6.9
					c1.6,0.8,3.3,2.5,4.6,5.3C179.9,145.7,177.9,151.2,177.9,151.2z M176,122.4l-0.5-4.2l2.7,3l3.4-1.8l-1.8,3.7l2.7,3l-3.8-0.7
					l-1.8,3.7l-0.5-4.2l-3.8-0.7L176,122.4z"/>
			</g>
			<g>
				<path class="st2" d="M116.6,135.7l-0.2,0c22.9,20.1,40.2-4.1,40.2-4.1c10.5-15.6,1.7-31.9,1.7-31.9c1.4,11.3-0.4,13.3-3.1,18.5
					c-2.7,5.2-9.2,8.2-9.2,8.2c-0.8,0.2-0.4-0.8-0.4-0.8c2.2-0.8,8.6-4.8,11.3-12.8c2.7-8.1,0.3-13.3,0.3-13.3
					c0.7,3.6-0.9,6.8-1.9,8.5c-1,1.6-5.2,6.2-12.1,4.9c-6.8-1.3-8.6,1.4-12.3,4.6c-3.6,3.2-3.5,8.1-3.7,10.1c-0.2,2-1.1,4.2-3.2,6.4
					C122.1,136.1,116.6,135.7,116.6,135.7z M141.1,124.9l3.4-1.8l-1.8,3.7l2.6,3l-3.8-0.7l-1.8,3.7l-0.5-4.2l-3.8-0.7l3.4-1.8
					l-0.5-4.2L141.1,124.9z"/>
			</g>
			<g>
				<path class="st2" d="M112.3,66.6l-0.1-0.2c-10.9,29.8,15.2,41,15.2,41c16.7,6.5,28.3-7.5,28.3-7.5c-9.5,4.7-11.7,3.4-17,2.1
					c-5.3-1.3-9.8-7.3-9.8-7.3c-0.4-0.8,0.6-0.6,0.6-0.6c1.3,2.1,6.6,7.6,14.5,8.2c7.8,0.5,11.7-3.5,11.7-3.5
					c-3,1.8-6.2,1.1-7.9,0.5c-1.7-0.6-6.9-3.7-7.8-11.3c-0.9-7.5-3.7-8.7-7.5-11.6c-3.8-2.9-8.1-1.3-9.8-1c-1.8,0.3-4,0.1-6.5-1.5
					C113.5,72.4,112.3,66.6,112.3,66.6z M128.8,89.2l2.6,3.1l-3.7-0.8l-1.9,3.7l-0.4-4.2l-3.7-0.8l3.5-1.8l-0.4-4.2l2.6,3.1l3.5-1.8
					L128.8,89.2z"/>
			</g>
		</g>
	</g>
</g>
<g>
</g>
<g>
</g>
<g>
</g>
<g>
</g>
<g>
</g>
<g>
</g>
<g>
</g>
<g>
</g>
<g>
</g>
<g>
</g>
<g>
</g>
<g>
</g>
<g>
</g>
<g>
</g>
<g>
</g>
</svg>
