<?xml version="1.0" encoding="utf-8"?>
<!-- Generator: Adobe Illustrator 25.2.0, SVG Export Plug-In . SVG Version: 6.00 Build 0)  -->
<svg version="1.1" id="Layer_1" xmlns="http://www.w3.org/2000/svg" xmlns:xlink="http://www.w3.org/1999/xlink" x="0px" y="0px"
	 viewBox="0 0 100 100" style="enable-background:new 0 0 100 100;" xml:space="preserve">
<style type="text/css">
	.st0{fill-rule:evenodd;clip-rule:evenodd;fill:url(#SVGID_1_);}
	.st1{fill-rule:evenodd;clip-rule:evenodd;fill:#FFFFFF;}
</style>
<g>
	<g>
		<linearGradient id="SVGID_1_" gradientUnits="userSpaceOnUse" x1="83.4947" y1="80.3441" x2="15.0668" y2="18.3529">
			<stop  offset="0" style="stop-color:#FEC053"/>
			<stop  offset="0.3273" style="stop-color:#F2203E"/>
			<stop  offset="0.6485" style="stop-color:#B729A8"/>
			<stop  offset="1" style="stop-color:#5342D6"/>
		</linearGradient>
		<path class="st0" d="M16.7,0h66.6C92.5,0,100,7.5,100,16.7v66.6c0,9.2-7.5,16.7-16.7,16.7H16.7C7.5,100,0,92.5,0,83.3V16.7
			C0,7.5,7.5,0,16.7,0L16.7,0z"/>
	</g>
	<g>
		<path class="st1" d="M73.3,50c0-12.9-10.4-23.3-23.3-23.3c-12.9,0-23.3,10.4-23.3,23.3c0,12.9,10.4,23.3,23.3,23.3
			C62.9,73.3,73.3,62.9,73.3,50L73.3,50z M72.8,23.6c-2.1,0-3.7,1.7-3.7,3.7c0,2.1,1.7,3.7,3.7,3.7c2.1,0,3.7-1.7,3.7-3.7
			C76.6,25.3,74.9,23.6,72.8,23.6L72.8,23.6z M31,18.2h38c7,0,12.8,5.8,12.8,12.8v38c0,7-5.7,12.8-12.8,12.8H31
			c-7,0-12.8-5.7-12.8-12.8V31C18.2,23.9,23.9,18.2,31,18.2L31,18.2z M69,13.9H31c-9.4,0-17.1,7.7-17.1,17.1v38
			c0,9.4,7.7,17.1,17.1,17.1h38c9.4,0,17.1-7.7,17.1-17.1V31C86.1,21.6,78.4,13.9,69,13.9L69,13.9z M31.6,50
			c0-10.2,8.3-18.4,18.4-18.4S68.4,39.8,68.4,50c0,10.2-8.3,18.4-18.4,18.4S31.6,60.2,31.6,50L31.6,50z"/>
	</g>
</g>
<g>
</g>
<g>
</g>
<g>
</g>
<g>
</g>
<g>
</g>
<g>
</g>
<g>
</g>
<g>
</g>
<g>
</g>
<g>
</g>
<g>
</g>
<g>
</g>
<g>
</g>
<g>
</g>
<g>
</g>
</svg>
