<?xml version="1.0" encoding="utf-8"?>
<!-- Generator: Adobe Illustrator 25.2.0, SVG Export Plug-In . SVG Version: 6.00 Build 0)  -->
<svg version="1.1" id="Flag" xmlns="http://www.w3.org/2000/svg" xmlns:xlink="http://www.w3.org/1999/xlink" x="0px" y="0px"
	 viewBox="0 0 1384.5 1050" style="enable-background:new 0 0 1384.5 1050;" xml:space="preserve">
<style type="text/css">
	.st0{fill:#D24539;}
	.st1{fill:#EAECEE;}
	.st2{fill:#CED5D9;}
</style>
<g>
	<path class="st0" d="M1384.5,114.9c0,274.4,0,548.8,0,823.1c-1.2,1.4-1.4,3.2-1.8,5c-11.6,62.5-58.8,103.3-123.2,106.5
		c-11.7,0.6-23.4,0.4-35.1,0c-5.3-0.2-11,0.3-15.1-4.4c-4.3-12-4.5-24.6-4.5-37.2c0-243.6,0.1-487.3-0.1-730.9
		c0-7.2,4.1-17.2-4-20.9c-7-3.2-12.6,5.4-18.1,9.6c-104.8,80.6-209.9,161-314.8,241.6C817.6,546,767,584.2,717.1,623.4
		c-7.5,5.9-15.5,10.8-24.7,13.5c-8.5,0.5-14.1-5.3-20-9.9C591.7,565.2,511,503.3,430.3,441.3c-78.2-60-156.3-120.1-234.6-180
		c-3.8-2.9-7.4-8.2-12.8-5.4c-5.2,2.7-3.3,8.9-3.3,13.6c-0.1,110.2-0.1,220.3-0.1,330.5c0,138.5,0,277,0,415.5
		c0,9.8,1,19.9-3.9,29.1c-2,2.7-4.8,4.1-8,4.3c-33.4,2-67,2.9-97.4-13.5C33.7,1015.7,5,989.3,2,944.3c-0.1-2.1-0.5-4.5-2-6.3
		c0-275.3,0-550.6,0-825.8c1.2-1.4,1.4-3.2,1.8-5C13.3,44.9,60.6,3.7,124.9,0.7c16.6-0.8,33.3-1.3,49.9,0.9
		c88.1,65.9,173.3,135.5,260,203.2c81.9,63.9,163.1,128.8,244.9,192.9c9.1,7.1,15.6,7.5,24.8,0.2c67.9-53.3,135.6-107,203.5-160.4
		c73.6-57.8,146.9-115.9,220.6-173.5c19.1-15,37.9-30.4,57.3-45.1c7.8-5.9,17.1-9.6,23.5-17.3c35.2-2.6,70.8-4.5,103.3,12.3
		c38.5,19.8,67.4,47.8,70.3,94.5C1383.2,110.7,1382.9,113,1384.5,114.9z"/>
	<path class="st1" d="M1209,1042.9c-4.5,0.1-9,0.3-13.5,0.3c-337.3,0-674.6,0-1011.9,0c-3.6,0-7.2-0.1-10.8-0.2
		c0.1-49.5,0.3-98.9,0.3-148.4c0-214,0-428,0-642.1c0-4.8,0-9.5,0-17.1c17.8,13.6,33.4,25.5,48.9,37.5
		c153.5,117.8,307,235.7,460.5,353.5c3.2,2.5,6.6,4.7,9.9,7c7,0,12.5,2.5,18.2,7c119.9,94,239.4,188.6,359,282.9
		c43.1,33.9,86.2,67.8,129.3,101.6C1205,1029.8,1208.9,1035.1,1209,1042.9z"/>
	<path class="st1" d="M174.8,7.3c6.3-0.1,12.6-0.4,18.9-0.4c332.3,0,664.7,0,997,0c6.3,0,12.6,0.3,18.9,0.4
		c-45,35.8-90,71.8-135.1,107.5c-124,97.9-248.2,195.5-372,293.5c-7.8,6.2-12.6,6.2-20.5,0c-165.9-131.2-332.1-262-498.2-393
		C180.7,12.9,177.8,10,174.8,7.3z"/>
	<path class="st2" d="M1209,1042.9c-23.3-22.5-50-41-75.3-61c-101-80.2-202.5-159.8-303.8-239.7C784,706,738.2,669.7,692.4,633.5
		c168.5-129.3,337-258.5,505.5-387.8c3.8-2.9,7.8-5.5,13.7-9.7c0,270.6,0,538.7,0,806.9c0,0-1.3,0.1-1.3,0.1L1209,1042.9z"/>
</g>
<g>
</g>
<g>
</g>
<g>
</g>
<g>
</g>
<g>
</g>
</svg>
